<svg id="ed6ba1nqzh7r1" xmlns="http://www.w3.org/2000/svg" xmlns:xlink="http://www.w3.org/1999/xlink" viewBox="0 0 88.640000 217.110000" shape-rendering="geometricPrecision" text-rendering="geometricPrecision"><style><![CDATA[#ed6ba1nqzh7r2 {animation: ed6ba1nqzh7r2_c_o 4000ms linear infinite normal forwards}@keyframes ed6ba1nqzh7r2_c_o { 0% {opacity: 1} 50% {opacity: 0} 100% {opacity: 1} }#ed6ba1nqzh7r3 {animation: ed6ba1nqzh7r3_c_o 4000ms linear infinite normal forwards}@keyframes ed6ba1nqzh7r3_c_o { 0% {opacity: 1} 50% {opacity: 0} 100% {opacity: 1} }#ed6ba1nqzh7r4 {animation: ed6ba1nqzh7r4_c_o 4000ms linear infinite normal forwards}@keyframes ed6ba1nqzh7r4_c_o { 0% {opacity: 1} 50% {opacity: 0.020000} 100% {opacity: 1} }#ed6ba1nqzh7r5 {animation: ed6ba1nqzh7r5_c_o 4000ms linear infinite normal forwards}@keyframes ed6ba1nqzh7r5_c_o { 0% {opacity: 1} 50% {opacity: 0} 100% {opacity: 1} }]]></style><ellipse id="ed6ba1nqzh7r2" rx="42.820000" ry="61.500000" transform="matrix(1 0 0 1 44.32000000000000 108.55000000000000)" fill="none" stroke="rgb(255,255,255)" stroke-width="3" stroke-miterlimit="10"/><path id="ed6ba1nqzh7r3" d="M960,529.260000C959.225605,526.370262,958.700349,523.419460,958.430000,520.440000Q958,516,958,511.620000C957.993595,508.674609,958.137114,505.730800,958.430000,502.800000C958.701479,499.827269,959.226727,496.883206,960,494C960.774395,496.889738,961.299651,499.840540,961.570000,502.820000C961.862886,505.750800,962.006405,508.694609,962,511.640000Q962,516.050000,961.570000,520.460000C961.298521,523.432731,960.773273,526.376794,960,529.260000Z" transform="matrix(1 0 0 1 -915.67999267578125 -431.45001220703125)" fill="rgb(255,255,255)" stroke="none" stroke-width="1"/><polygon id="ed6ba1nqzh7r4" points="44.320000,214.100000 33.320000,195.050000 55.320000,195.050000 44.320000,214.100000" fill="none" stroke="rgb(255,255,255)" stroke-width="3" stroke-miterlimit="10"/><polygon id="ed6ba1nqzh7r5" points="44.200000,3 33.200000,22.050000 55.200000,22.050000 44.200000,3" fill="none" stroke="rgb(255,255,255)" stroke-width="3" stroke-miterlimit="10"/></svg>