<svg id="Ebene_1" data-name="Ebene 1" xmlns="http://www.w3.org/2000/svg" viewBox="0 0 88.64 217.11"><defs><style>.cls-1{fill:none;stroke:#fff;stroke-miterlimit:10;stroke-width:3px;}.cls-2{fill:#fff;}</style></defs><ellipse class="cls-1" cx="44.32" cy="108.55" rx="42.82" ry="61.5"/><path class="cls-2" d="M960,529.26a52.35,52.35,0,0,1-1.57-8.82Q958,516,958,511.62a86.8,86.8,0,0,1,.43-8.82A52.35,52.35,0,0,1,960,494a52.35,52.35,0,0,1,1.57,8.82,86.8,86.8,0,0,1,.43,8.82q0,4.41-.43,8.82A52.35,52.35,0,0,1,960,529.26Z" transform="translate(-915.68 -431.45)"/><polygon class="cls-1" points="44.2 3 33.2 22.05 55.2 22.05 44.2 3"/><polygon class="cls-1" points="44.32 214.1 33.32 195.05 55.32 195.05 44.32 214.1"/></svg>